<?xml version="1.0" standalone="no"?>
<svg version="1.0" xmlns="http://www.w3.org/2000/svg" width="2000pt" height="2000pt" viewBox="0 0 2000 2000" preserveAspectRatio="xMidYMid meet">
<rect width="2000" height="2000" fill="#0e0e0e"/>
<g transform="translate(0,2000) scale(0.1,-0.1)" fill="#FFFFFF">
<path d="M8700 13108 l2075 -2078 -515 -515 -515 -515 -1557 1557 -1558 1558 0 -4153 0 -4152 -725 0 -725 0 0 5190 0 5190 723 -2 722 -1 2075 -2079z m6490 -5995 l0 -2303 -730 0 -730 0 0 2002 0 2003 -1862 1862 -1863 1863 515 515 515 515 2077 -2077 2078 -2078 0 -2302z"/>
</g>
</svg>
