<?xml version="1.0" standalone="no"?>
<!DOCTYPE svg PUBLIC "-//W3C//DTD SVG 20010904//EN"
 "http://www.w3.org/TR/2001/REC-SVG-20010904/DTD/svg10.dtd">
<svg version="1.0" xmlns="http://www.w3.org/2000/svg"
 width="2000.000000pt" height="2000.000000pt" viewBox="0 0 2000.000000 2000.000000"
 preserveAspectRatio="xMidYMid meet">

<g transform="translate(0.000000,2000.000000) scale(0.100000,-0.100000)"
fill="#000000" stroke="none">
<path d="M0 10000 l0 -10000 10000 0 10000 0 0 10000 0 10000 -10000 0 -10000
0 0 -10000z m8700 3108 l2075 -2078 -515 -515 -515 -515 -1557 1557 -1558
1558 0 -4153 0 -4152 -725 0 -725 0 0 5190 0 5190 723 -2 722 -1 2075 -2079z
m6490 -5995 l0 -2303 -730 0 -730 0 0 2002 0 2003 -1862 1862 -1863 1863 515
515 515 515 2077 -2077 2078 -2078 0 -2302z"/>
</g>
</svg>
